<svg width="60" height="60" viewBox="0 0 60 60" version="1.1" xmlns="http://www.w3.org/2000/svg" xmlns:xlink="http://www.w3.org/1999/xlink">
<title>Frame 5.1</title>
<desc>Created using Figma</desc>
<g id="Canvas" transform="translate(-1664 -4945)">
<clipPath id="clip-0" clip-rule="evenodd">
<path d="M 1664 4945L 1724 4945L 1724 5005L 1664 5005L 1664 4945Z" fill="#FFFFFF"/>
</clipPath>
<g id="Frame 5.1" clip-path="url(#clip-0)">
<g id="Seattle">
<g id="Mask Group">
<mask id="mask0_alpha" mask-type="alpha">
<g id="Vector">
<use xlink:href="#path0_fill" transform="translate(1687.85 4969.65)" fill="#C4C4C4"/>
</g>
</mask>
<g id="Vector" mask="url(#mask0_alpha)">
<use xlink:href="#path0_fill" transform="translate(1689.6 4969.65)" fill="#D9F5FD"/>
</g>
</g>
<g id="Vector">
<use xlink:href="#path1_stroke" transform="translate(1687.85 4969.65)" fill="#102B7B"/>
</g>
<g id="Vector 2">
<use xlink:href="#path2_fill" transform="translate(1692.92 4969.65)" fill="#D9F5FD"/>
<use xlink:href="#path3_stroke" transform="translate(1692.92 4969.65)" fill="#102B7B"/>
</g>
<g id="Vector 3">
<use xlink:href="#path4_stroke" transform="matrix(-0.999953 0.00973936 0.00973936 0.999953 1693.96 4951.81)" fill="#102B7B"/>
</g>
<g id="Vector">
<use xlink:href="#path5_stroke" transform="translate(1688.1 4959.34)" fill="#102B7B"/>
</g>
</g>
<g id="Vector">
<use xlink:href="#path6_stroke" transform="translate(1685.77 4969.62)" fill="#102B7B"/>
</g>
<g id="Mask Group">
<mask id="mask1_alpha" mask-type="alpha">
<g id="Union">
<use xlink:href="#path7_fill" transform="translate(1681.11 4961.19)" fill="#C4C4C4"/>
</g>
</mask>
<g id="Union" mask="url(#mask1_alpha)">
<use xlink:href="#path8_fill" transform="translate(1682.5 4963.18)" fill="#D9F5FD"/>
</g>
</g>
<g id="Union">
<use xlink:href="#path9_stroke" transform="translate(1680.11 4961.79)" fill="#102B7B"/>
</g>
</g>
</g>
<defs>
<path id="path0_fill" d="M 12.5657 29.8995L 1.1707 29.8995L 3.84092 9.61936C 3.88803 9.26153 3.83744 8.89763 3.69451 8.56623L 0 0C 1.97279 0.277276 3.20154 0.562968 5.24693 0.562968L 12.5657 29.8995Z"/>
<path id="path1_stroke" d="M 1.1707 29.8997L 0.42712 29.8018C 0.398926 30.0159 0.464414 30.2318 0.606819 30.3942C 0.749224 30.5565 0.954721 30.6497 1.1707 30.6497L 1.1707 29.8997ZM 12.5657 29.8997L 12.5657 30.6497C 12.7966 30.6497 13.0147 30.5433 13.1568 30.3612C 13.2989 30.1792 13.3493 29.9419 13.2933 29.7178L 12.5657 29.8997ZM 5.09385 0L 5.82148 -0.181831C 5.73803 -0.515748 5.43802 -0.750009 5.09383 -0.75L 5.09385 0ZM 0 0.00013344L -1.96472e-05 -0.749867C -0.252428 -0.74986 -0.487905 -0.622891 -0.626609 -0.412009C -0.765313 -0.201127 -0.78864 0.065381 -0.68868 0.297153L 0 0.00013344ZM 3.69451 8.56636L 3.00583 8.86338L 3.69451 8.56636ZM 1.1707 30.6497L 12.5657 30.6497L 12.5657 29.1497L 1.1707 29.1497L 1.1707 30.6497ZM 13.2933 29.7178L 5.82148 -0.181831L 4.36623 0.181831L 11.838 30.0815L 13.2933 29.7178ZM 5.09383 -0.75L -1.96472e-05 -0.749867L 1.96472e-05 0.750133L 5.09387 0.75L 5.09383 -0.75ZM -0.68868 0.297153L 3.00583 8.86338L 4.38319 8.26934L 0.68868 -0.296886L -0.68868 0.297153ZM 3.09733 9.52158L 0.42712 29.8018L 1.91428 29.9976L 4.5845 9.71739L 3.09733 9.52158ZM 3.00583 8.86338C 3.11515 9.09973 3.13803 9.26437 3.09733 9.52158L 4.5845 9.71739C 4.63802 9.25896 4.55973 8.69579 4.38319 8.26934L 3.00583 8.86338Z"/>
<path id="path2_fill" d="M 6.99555 4.82516e-05L 2.41638 9.3655L 0 0L 6.99555 4.82516e-05Z"/>
<path id="path3_stroke" d="M 2.41638 9.3655L 1.69017 9.55287C 1.76862 9.85696 2.02823 10.08 2.34067 10.1117C 2.65311 10.1434 2.95222 9.97707 3.09016 9.69494L 2.41638 9.3655ZM 6.99555 4.82516e-05L 7.66932 0.329485C 7.78297 0.0970353 7.76878 -0.177581 7.63178 -0.397078C 7.49477 -0.616576 7.2543 -0.74995 6.99555 -0.749952L 6.99555 4.82516e-05ZM 0 0L 5.17311e-06 -0.75C -0.231938 -0.750002 -0.450832 -0.642688 -0.592885 -0.459334C -0.734937 -0.27598 -0.784164 -0.0372176 -0.726218 0.187371L 0 0ZM 3.09016 9.69494L 7.66932 0.329485L 6.32177 -0.329388L 1.74261 9.03607L 3.09016 9.69494ZM 6.99555 -0.749952L 5.17311e-06 -0.75L -5.17311e-06 0.75L 6.99554 0.750048L 6.99555 -0.749952ZM -0.726218 0.187371L 1.69017 9.55287L 3.1426 9.17813L 0.726218 -0.187371L -0.726218 0.187371Z"/>
<path id="path4_stroke" d="M -0.683424 6.84257C -0.679387 7.25676 -0.340344 7.58926 0.07385 7.58523C 0.488044 7.58119 0.820542 7.24215 0.816505 6.82795L -0.683424 6.84257ZM 0.749886 -0.00732757C 0.74585 -0.421521 0.406807 -0.754019 -0.00738726 -0.749983C -0.421581 -0.745946 -0.754079 -0.406903 -0.750042 0.00729115L 0.749886 -0.00732757ZM 0.816505 6.82795L 0.749886 -0.00732757L -0.750042 0.00729115L -0.683424 6.84257L 0.816505 6.82795Z"/>
<path id="path5_stroke" d="M 0 -0.75C -0.414214 -0.75 -0.75 -0.414214 -0.75 0C -0.75 0.414214 -0.414214 0.75 0 0.75L 0 -0.75ZM 11.0631 0.75C 11.4773 0.75 11.8131 0.414214 11.8131 0C 11.8131 -0.414214 11.4773 -0.75 11.0631 -0.75L 11.0631 0.75ZM 0 0.75L 11.0631 0.75L 11.0631 -0.75L 0 -0.75L 0 0.75Z"/>
<path id="path6_stroke" d="M 0 -0.75C -0.414214 -0.75 -0.75 -0.414214 -0.75 0C -0.75 0.414214 -0.414214 0.75 0 0.75L 0 -0.75ZM 16.262 0.75C 16.6762 0.75 17.012 0.414214 17.012 0C 17.012 -0.414214 16.6762 -0.75 16.262 -0.75L 16.262 0.75ZM 0 0.75L 16.262 0.75L 16.262 -0.75L 0 -0.75L 0 0.75Z"/>
<path id="path7_fill" d="M 17.6134 0L 7.95447 0L 3.95447 3.53271L 0 3.53271L 0 5.8208L 25.5679 5.8208L 25.5679 3.53271L 21.6134 3.53271L 17.6134 0Z"/>
<path id="path8_fill" d="M 17.6134 0L 7.95447 0L 3.95447 3.21756L 0 3.21756L 0 5.30152L 25.5679 5.30152L 25.5679 3.21756L 22.0759 3.21756L 17.6134 0Z"/>
<path id="path9_stroke" d="M 8.95447 0L 8.95447 -0.75C 8.78542 -0.75 8.62134 -0.692893 8.48882 -0.58794L 8.95447 0ZM 18.6134 0L 19.158 -0.515695C 19.0163 -0.66527 18.8194 -0.75 18.6134 -0.75L 18.6134 0ZM 4.95447 3.16799L 5.24144 3.86092C 5.30557 3.83436 5.3657 3.79902 5.42011 3.75593L 4.95447 3.16799ZM 0 5.21985L -0.286971 4.52692C -0.617556 4.66383 -0.805389 5.0152 -0.735593 5.36614C -0.665798 5.71708 -0.357814 5.96985 4.46042e-16 5.96985L 0 5.21985ZM 27.5679 5.21985L 27.5679 5.96985C 27.9343 5.96985 28.2471 5.7051 28.3076 5.34372C 28.3681 4.98234 28.1586 4.63014 27.8122 4.51077L 27.5679 5.21985ZM 21.6134 3.16799L 21.0688 3.68368C 21.1519 3.77138 21.2549 3.83772 21.3691 3.87707L 21.6134 3.16799ZM 8.95447 0.75L 18.6134 0.75L 18.6134 -0.75L 8.95447 -0.75L 8.95447 0.75ZM 5.42011 3.75593L 9.42011 0.58794L 8.48882 -0.58794L 4.48882 2.58005L 5.42011 3.75593ZM 0.286971 5.91277L 5.24144 3.86092L 4.6675 2.47506L -0.286971 4.52692L 0.286971 5.91277ZM 27.5679 4.46985L 0 4.46985L 0 5.96985L 27.5679 5.96985L 27.5679 4.46985ZM 21.3691 3.87707L 27.3235 5.92893L 27.8122 4.51077L 21.8577 2.45891L 21.3691 3.87707ZM 18.0688 0.515695L 21.0688 3.68368L 22.158 2.65229L 19.158 -0.515695L 18.0688 0.515695Z"/>
</defs>
</svg>
