<svg width="60" height="60" viewBox="0 0 60 60" version="1.1" xmlns="http://www.w3.org/2000/svg" xmlns:xlink="http://www.w3.org/1999/xlink">
<title>Frame 7</title>
<desc>Created using Figma</desc>
<g id="Canvas" transform="translate(-1828 -4916)">
<clipPath id="clip-0" clip-rule="evenodd">
<path d="M 1828 4916L 1888 4916L 1888 4976L 1828 4976L 1828 4916Z" fill="#FFFFFF"/>
</clipPath>
<g id="Frame 7" clip-path="url(#clip-0)">
<g id="Vector 3">
<use xlink:href="#path0_fill" transform="translate(1842.13 4941.14)" fill="#D9F5FD"/>
</g>
<g id="Vector 3">
<use xlink:href="#path1_stroke" transform="translate(1835.07 4948.01)" fill="#102B7B"/>
</g>
<g id="Vector 3">
<use xlink:href="#path2_stroke" transform="translate(1832.84 4948.56)" fill="#102B7B"/>
</g>
<g id="Vector 3.1">
<use xlink:href="#path3_stroke" transform="matrix(0.999967 -0.00816497 0.00816497 0.999967 1880.01 4948)" fill="#102B7B"/>
</g>
<g id="Vector 3.2">
<use xlink:href="#path2_stroke" transform="translate(1882.22 4948.67)" fill="#102B7B"/>
</g>
<g id="Vector">
<use xlink:href="#path4_stroke" transform="translate(1829.31 4938.19)" fill="#102B7B"/>
</g>
<g id="Vector 2">
<use xlink:href="#path5_stroke" transform="translate(1843.2 4938.63)" fill="#102B7B"/>
</g>
<g id="Group">
<g id="Vector 3">
<use xlink:href="#path6_stroke" transform="translate(1844.44 4956.66)" fill="#102B7B"/>
</g>
<g id="Vector 3.3">
<use xlink:href="#path6_stroke" transform="translate(1847.6 4956.66)" fill="#102B7B"/>
</g>
<g id="Vector 3.4">
<use xlink:href="#path6_stroke" transform="translate(1850.87 4956.66)" fill="#102B7B"/>
</g>
<g id="Vector 3.5">
<use xlink:href="#path6_stroke" transform="translate(1854.13 4956.66)" fill="#102B7B"/>
</g>
<g id="Vector 3.6">
<use xlink:href="#path6_stroke" transform="translate(1857.3 4956.66)" fill="#102B7B"/>
</g>
<g id="Vector 3.7">
<use xlink:href="#path6_stroke" transform="translate(1860.56 4956.66)" fill="#102B7B"/>
</g>
<g id="Vector 3.8">
<use xlink:href="#path6_stroke" transform="translate(1863.83 4956.66)" fill="#102B7B"/>
</g>
<g id="Vector 3.9">
<use xlink:href="#path6_stroke" transform="translate(1867.1 4956.66)" fill="#102B7B"/>
</g>
<g id="Vector 3.10">
<use xlink:href="#path6_stroke" transform="translate(1870.26 4956.66)" fill="#102B7B"/>
</g>
</g>
<g id="Group">
<g id="Vector 3">
<use xlink:href="#path7_stroke" transform="translate(1839.64 4958.82)" fill="#102B7B"/>
</g>
<g id="Vector 3.3">
<use xlink:href="#path7_stroke" transform="translate(1843.96 4958.81)" fill="#102B7B"/>
</g>
<g id="Vector 3.4">
<use xlink:href="#path7_stroke" transform="translate(1848.42 4958.81)" fill="#102B7B"/>
</g>
<g id="Vector 3.5">
<use xlink:href="#path7_stroke" transform="translate(1852.88 4958.81)" fill="#102B7B"/>
</g>
<g id="Vector 3.6">
<use xlink:href="#path7_stroke" transform="translate(1857.2 4958.81)" fill="#102B7B"/>
</g>
<g id="Vector 3.7">
<use xlink:href="#path7_stroke" transform="translate(1861.66 4958.81)" fill="#102B7B"/>
</g>
<g id="Vector 3.8">
<use xlink:href="#path7_stroke" transform="translate(1866.12 4958.81)" fill="#102B7B"/>
</g>
<g id="Vector 3.9">
<use xlink:href="#path7_stroke" transform="translate(1870.59 4958.81)" fill="#102B7B"/>
</g>
<g id="Vector 3.10">
<use xlink:href="#path7_stroke" transform="translate(1874.91 4958.81)" fill="#102B7B"/>
</g>
</g>
</g>
</g>
<defs>
<path id="path0_fill" d="M 0 6.43506C 6.29075 1.53207 9.73402 0.0544657 15.7055 0C 23.1763 0.558731 27.0758 2.14765 33.7015 6.43506L 0 6.43506Z"/>
<path id="path1_stroke" d="M 0.75 0C 0.75 -0.414214 0.414214 -0.75 0 -0.75C -0.414214 -0.75 -0.75 -0.414214 -0.75 0L 0.75 0ZM -0.75 4.09006C -0.75 4.50427 -0.414214 4.84006 0 4.84006C 0.414214 4.84006 0.75 4.50427 0.75 4.09006L -0.75 4.09006ZM -0.75 0L -0.75 4.09006L 0.75 4.09006L 0.75 0L -0.75 0Z"/>
<path id="path2_stroke" d="M -0.75 2.63892C -0.75 3.05314 -0.414214 3.38892 0 3.38892C 0.414214 3.38892 0.75 3.05314 0.75 2.63892L -0.75 2.63892ZM 0.75 0C 0.75 -0.414214 0.414214 -0.75 0 -0.75C -0.414214 -0.75 -0.75 -0.414214 -0.75 0L 0.75 0ZM 0.75 2.63892L 0.75 0L -0.75 0L -0.75 2.63892L 0.75 2.63892Z"/>
<path id="path3_stroke" d="M 0.75 0C 0.75 -0.414214 0.414214 -0.75 0 -0.75C -0.414214 -0.75 -0.75 -0.414214 -0.75 0L 0.75 0ZM -0.75 4.46369C -0.75 4.8779 -0.414214 5.21369 0 5.21369C 0.414214 5.21369 0.75 4.8779 0.75 4.46369L -0.75 4.46369ZM -0.75 0L -0.75 4.46369L 0.75 4.46369L 0.75 0L -0.75 0Z"/>
<path id="path4_stroke" d="M 4.1579 14.8745C 3.93204 15.2218 4.03041 15.6863 4.37763 15.9122C 4.72485 16.1381 5.18942 16.0397 5.41528 15.6925L 4.1579 14.8745ZM 28.6919 6.56248e-10L 28.6919 0.75L 28.6919 6.56248e-10ZM 51.1038 16.0801C 51.3616 16.4043 51.8334 16.4582 52.1576 16.2004C 52.4818 15.9426 52.5356 15.4708 52.2778 15.1466L 51.1038 16.0801ZM 0 8.8682C -0.414214 8.8682 -0.75 9.20399 -0.75 9.6182C -0.75 10.0324 -0.414214 10.3682 0 10.3682L 0 8.8682ZM 57.3838 10.3682C 57.798 10.3682 58.1338 10.0324 58.1338 9.6182C 58.1338 9.20399 57.798 8.8682 57.3838 8.8682L 57.3838 10.3682ZM 5.41528 15.6925C 7.20007 12.9441 10.6017 9.22299 14.8238 6.14888C 19.0467 3.06947 23.9569 0.750031 28.6919 0.75L 28.6919 -0.75C 23.4998 -0.749966 18.2777 1.77382 13.94 4.93689C 9.60139 8.10525 6.01395 12.0259 4.1579 14.8745L 5.41528 15.6925ZM 28.6919 0.75C 43.0658 0.749904 47.3694 11.3839 51.1038 16.0801L 52.2778 15.1466C 48.8392 10.8222 43.988 -0.750102 28.6919 -0.75L 28.6919 0.75ZM 0 10.3682L 57.3838 10.3682L 57.3838 8.8682L 0 8.8682L 0 10.3682Z"/>
<path id="path5_stroke" d="M 0.667829 5.3319C 0.479319 4.96307 0.0275041 4.81689 -0.341328 5.0054C -0.710159 5.19391 -0.856339 5.64573 -0.667829 6.01456L 0.667829 5.3319ZM 1.51733 8.64198L 0.849502 8.98331L 2.21149 8.92596L 1.51733 8.64198ZM 3.89222 2.83666L 4.59961 2.58747L 3.19806 2.55269L 3.89222 2.83666ZM 5.93727 8.64198L 5.22988 8.89118L 6.65246 8.86783L 5.93727 8.64198ZM 8.31217 1.12154L 9.03259 0.912999L 7.59698 0.895693L 8.31217 1.12154ZM 10.4892 8.64198L 9.76873 8.85053L 11.2137 8.83558L 10.4892 8.64198ZM 12.7981 0L 13.5304 -0.162106L 12.0735 -0.193591L 12.7981 0ZM 14.7112 8.64198L 13.9789 8.80409L 15.4315 8.85093L 14.7112 8.64198ZM 17.218 0L 17.9503 -0.162106L 16.4977 -0.208944L 17.218 0ZM 19.1311 8.64198L 18.3989 8.80409L 19.8449 8.87224L 19.1311 8.64198ZM 21.7699 0.461834L 22.5027 0.302266L 21.0561 0.231581L 21.7699 0.461834ZM 23.5511 8.64198L 22.8183 8.80155L 24.2484 8.91802L 23.5511 8.64198ZM 26.0579 2.30898L 26.7738 2.08527L 25.3606 2.03294L 26.0579 2.30898ZM 28.037 8.64198L 27.3211 8.86569L 28.6757 9.03506L 28.037 8.64198ZM 30.7868 5.6047C 31.0038 5.25194 30.8939 4.78998 30.5411 4.57289C 30.1883 4.35579 29.7264 4.46578 29.5093 4.81855L 30.7868 5.6047ZM -0.667829 6.01456L 0.849502 8.98331L 2.18516 8.30066L 0.667829 5.3319L -0.667829 6.01456ZM 2.21149 8.92596L 4.58638 3.12064L 3.19806 2.55269L 0.82317 8.35801L 2.21149 8.92596ZM 3.18483 3.08586L 5.22988 8.89118L 6.64466 8.39279L 4.59961 2.58747L 3.18483 3.08586ZM 6.65246 8.86783L 9.02735 1.34739L 7.59698 0.895693L 5.22209 8.41613L 6.65246 8.86783ZM 7.59175 1.33009L 9.76873 8.85053L 11.2096 8.43344L 9.03259 0.912999L 7.59175 1.33009ZM 11.2137 8.83558L 13.5227 0.193591L 12.0735 -0.193591L 9.76457 8.44839L 11.2137 8.83558ZM 12.0658 0.162106L 13.9789 8.80409L 15.4435 8.47988L 13.5304 -0.162106L 12.0658 0.162106ZM 15.4315 8.85093L 17.9383 0.208944L 16.4977 -0.208944L 13.9909 8.43304L 15.4315 8.85093ZM 16.4858 0.162106L 18.3989 8.80409L 19.8634 8.47988L 17.9503 -0.162106L 16.4858 0.162106ZM 19.8449 8.87224L 22.4837 0.692088L 21.0561 0.231581L 18.4174 8.41173L 19.8449 8.87224ZM 21.0371 0.621403L 22.8183 8.80155L 24.2839 8.48242L 22.5027 0.302266L 21.0371 0.621403ZM 24.2484 8.91802L 26.7553 2.58501L 25.3606 2.03294L 22.8537 8.36595L 24.2484 8.91802ZM 25.3421 2.53268L 27.3211 8.86569L 28.7529 8.41828L 26.7738 2.08527L 25.3421 2.53268ZM 28.6757 9.03506L 30.7868 5.6047L 29.5093 4.81855L 27.3983 8.24891L 28.6757 9.03506Z"/>
<path id="path6_stroke" d="M 0.380306 -0.324604C 0.201032 -0.534641 -0.114567 -0.559579 -0.324604 -0.380306C -0.534641 -0.201032 -0.559579 0.114567 -0.380306 0.324604L 0.380306 -0.324604ZM 3.61942 0.353553C 3.81468 0.158291 3.81468 -0.158291 3.61942 -0.353553C 3.42416 -0.548816 3.10758 -0.548816 2.91232 -0.353553L 3.61942 0.353553ZM -0.380306 0.324604C -0.073785 0.683723 0.486853 1.11336 1.20474 1.2411C 1.95747 1.37505 2.80971 1.16327 3.61942 0.353553L 2.91232 -0.353553C 2.31245 0.246309 1.78241 0.328188 1.37993 0.256569C 0.942594 0.178749 0.575085 -0.0964002 0.380306 -0.324604L -0.380306 0.324604Z"/>
<path id="path7_stroke" d="M 0.380306 -0.324604C 0.201032 -0.534641 -0.114567 -0.559579 -0.324604 -0.380306C -0.534641 -0.201032 -0.559579 0.114567 -0.380306 0.324604L 0.380306 -0.324604ZM 4.81368 0.353553C 5.00894 0.158291 5.00894 -0.158291 4.81368 -0.353553C 4.61841 -0.548816 4.30183 -0.548816 4.10657 -0.353553L 4.81368 0.353553ZM -0.380306 0.324604C 0.017872 0.791108 0.748212 1.34961 1.67731 1.51494C 2.64126 1.68647 3.74624 1.42099 4.81368 0.353553L 4.10657 -0.353553C 3.24898 0.504034 2.4662 0.639606 1.8525 0.530402C 1.20395 0.414996 0.666742 0.0109851 0.380306 -0.324604L -0.380306 0.324604Z"/>
</defs>
</svg>
