<svg width="60" height="60" viewBox="0 0 60 60" version="1.1" xmlns="http://www.w3.org/2000/svg" xmlns:xlink="http://www.w3.org/1999/xlink">
<title>Frame 5</title>
<desc>Created using Figma</desc>
<g id="Canvas" transform="translate(-1593 -4945)">
<clipPath id="clip-0" clip-rule="evenodd">
<path d="M 1593 4945L 1653 4945L 1653 5005L 1593 5005L 1593 4945Z" fill="#FFFFFF"/>
</clipPath>
<g id="Frame 5" clip-path="url(#clip-0)">
<g id="Boston">
<g id="Rectangle 2">
<use xlink:href="#path0_fill" transform="translate(1598.05 4978.82)" fill="#D9F5FD"/>
</g>
<g id="Rectangle">
<mask id="mask0_outline_ins">
<use xlink:href="#path1_fill" fill="white" transform="translate(1593.02 4977.62)"/>
</mask>
<g mask="url(#mask0_outline_ins)">
<use xlink:href="#path2_stroke_2x" transform="translate(1593.02 4977.62)" fill="#102B7B"/>
</g>
</g>
<g id="Group 2">
<g id="Vector">
<use xlink:href="#path3_stroke" transform="translate(1608.73 4964.61)" fill="#102B7B"/>
</g>
<g id="Vector 2">
<use xlink:href="#path4_stroke" transform="translate(1606.49 4986.62)" fill="#102B7B"/>
</g>
<g id="Group">
<g id="Vector 3">
<use xlink:href="#path5_stroke" transform="translate(1602.94 4968)" fill="#102B7B"/>
</g>
<g id="Vector 3.1">
<use xlink:href="#path6_stroke" transform="matrix(0.935324 0.353792 -0.353792 0.935324 1600.97 4965.25)" fill="#102B7B"/>
</g>
</g>
<g id="Group">
<g id="Vector 3">
<use xlink:href="#path7_stroke" transform="matrix(-1 0 0 1 1616.47 4968)" fill="#102B7B"/>
</g>
<g id="Vector 3.1">
<use xlink:href="#path8_stroke" transform="matrix(-0.935324 0.353792 0.353792 0.935324 1621.42 4963.38)" fill="#102B7B"/>
</g>
</g>
</g>
<g id="Group 2.1">
<g id="Vector">
<use xlink:href="#path3_stroke" transform="matrix(-1 0 0 1 1637.22 4964.61)" fill="#102B7B"/>
</g>
<g id="Vector 2">
<use xlink:href="#path4_stroke" transform="matrix(-1 0 0 1 1639.46 4986.62)" fill="#102B7B"/>
</g>
<g id="Group">
<g id="Vector 3">
<use xlink:href="#path5_stroke" transform="matrix(-1 0 0 1 1643.01 4968)" fill="#102B7B"/>
</g>
<g id="Vector 3.1">
<use xlink:href="#path6_stroke" transform="matrix(-0.935324 0.353792 0.353792 0.935324 1644.98 4965.25)" fill="#102B7B"/>
</g>
</g>
<g id="Group">
<g id="Vector 3">
<use xlink:href="#path7_stroke" transform="translate(1629.48 4968)" fill="#102B7B"/>
</g>
<g id="Vector 3.1">
<use xlink:href="#path8_stroke" transform="matrix(0.935324 0.353792 -0.353792 0.935324 1624.53 4963.38)" fill="#102B7B"/>
</g>
</g>
</g>
</g>
</g>
</g>
<defs>
<path id="path0_fill" d="M 0 0L 53.9229 0L 53.9229 3.21589L 0 3.21589L 0 0Z"/>
<path id="path1_fill" d="M 0 1C 0 0.447715 0.447715 0 1 0L 58.9529 0C 59.5052 0 59.9529 0.447715 59.9529 1L 59.9529 3.86723C 59.9529 4.41952 59.5052 4.86723 58.9529 4.86723L 1 4.86723C 0.447715 4.86723 0 4.41952 0 3.86723L 0 1Z"/>
<path id="path2_stroke_2x" d="M 1 1.5L 58.9529 1.5L 58.9529 -1.5L 1 -1.5L 1 1.5ZM 58.4529 1L 58.4529 3.86723L 61.4529 3.86723L 61.4529 1L 58.4529 1ZM 58.9529 3.36723L 1 3.36723L 1 6.36723L 58.9529 6.36723L 58.9529 3.36723ZM 1.5 3.86723L 1.5 1L -1.5 1L -1.5 3.86723L 1.5 3.86723ZM 1 3.36723C 1.27614 3.36723 1.5 3.59109 1.5 3.86723L -1.5 3.86723C -1.5 5.24794 -0.380712 6.36723 1 6.36723L 1 3.36723ZM 58.4529 3.86723C 58.4529 3.59109 58.6767 3.36723 58.9529 3.36723L 58.9529 6.36723C 60.3336 6.36723 61.4529 5.24794 61.4529 3.86723L 58.4529 3.86723ZM 58.9529 1.5C 58.6767 1.5 58.4529 1.27614 58.4529 1L 61.4529 1C 61.4529 -0.380712 60.3336 -1.5 58.9529 -1.5L 58.9529 1.5ZM 1 -1.5C -0.380712 -1.5 -1.5 -0.380712 -1.5 1L 1.5 1C 1.5 1.27614 1.27614 1.5 1 1.5L 1 -1.5Z"/>
<path id="path3_stroke" d="M 0.75 0C 0.75 -0.414214 0.414214 -0.75 0 -0.75C -0.414214 -0.75 -0.75 -0.414214 -0.75 0L 0.75 0ZM -0.75 22.0103C -0.75 22.4245 -0.414214 22.7603 0 22.7603C 0.414214 22.7603 0.75 22.4245 0.75 22.0103L -0.75 22.0103ZM -0.75 0L -0.75 22.0103L 0.75 22.0103L 0.75 0L -0.75 0Z"/>
<path id="path4_stroke" d="M 0 -0.75C -0.414214 -0.75 -0.75 -0.414214 -0.75 0C -0.75 0.414214 -0.414214 0.75 0 0.75L 0 -0.75ZM 4.48239 0.75C 4.8966 0.75 5.23239 0.414214 5.23239 0C 5.23239 -0.414214 4.8966 -0.75 4.48239 -0.75L 4.48239 0.75ZM 0 0.75L 4.48239 0.75L 4.48239 -0.75L 0 -0.75L 0 0.75Z"/>
<path id="path5_stroke" d="M -0.656479 9.91524C -0.856762 10.2778 -0.7252 10.7341 -0.362627 10.9344C -5.35497e-05 11.1347 0.456232 11.0031 0.656516 10.6405L -0.656479 9.91524ZM 6.33396 0.362645C 6.53425 7.20177e-05 6.40269 -0.456214 6.04011 -0.656497C 5.67754 -0.856781 5.22125 -0.725219 5.02097 -0.362645L 6.33396 0.362645ZM 0.656516 10.6405L 6.33396 0.362645L 5.02097 -0.362645L -0.656479 9.91524L 0.656516 10.6405Z"/>
<path id="path6_stroke" d="M -0.654845 13.5667C -0.85684 13.9283 -0.727437 14.3852 -0.365815 14.5872C -0.0041925 14.7892 0.45271 14.6598 0.654705 14.2982L -0.654845 13.5667ZM 8.43709 0.365745C 8.63909 0.00412272 8.50969 -0.45278 8.14806 -0.654775C 7.78644 -0.856771 7.32954 -0.727367 7.12754 -0.365745L 8.43709 0.365745ZM 0.654705 14.2982L 8.43709 0.365745L 7.12754 -0.365745L -0.654845 13.5667L 0.654705 14.2982Z"/>
<path id="path7_stroke" d="M -0.603163 9.86915C -0.849363 10.2023 -0.778912 10.6719 -0.445808 10.9181C -0.112703 11.1643 0.356915 11.0938 0.603115 10.7607L -0.603163 9.86915ZM 8.22694 0.445784C 8.47314 0.112679 8.40269 -0.35694 8.06959 -0.603139C 7.73648 -0.849339 7.26686 -0.778888 7.02066 -0.445784L 8.22694 0.445784ZM 0.603115 10.7607L 8.22694 0.445784L 7.02066 -0.445784L -0.603163 9.86915L 0.603115 10.7607Z"/>
<path id="path8_stroke" d="M -0.581114 15.5282C -0.842973 15.8492 -0.795078 16.3216 -0.474137 16.5835C -0.153197 16.8453 0.319255 16.7974 0.581114 16.4765L -0.581114 15.5282ZM 13.6376 0.474137C 13.8995 0.153197 13.8516 -0.319255 13.5306 -0.581114C 13.2097 -0.842973 12.7372 -0.795078 12.4754 -0.474137L 13.6376 0.474137ZM 0.581114 16.4765L 13.6376 0.474137L 12.4754 -0.474137L -0.581114 15.5282L 0.581114 16.4765Z"/>
</defs>
</svg>
